<svg width="77" height="59" viewBox="0 0 77 59" fill="none" xmlns="http://www.w3.org/2000/svg">
    <path d="M35.566 42.0992L51.1465 32.8256L35.566 7.23608L19.9483 32.9128L35.566 42.0992Z"
        stroke="white" stroke-width="2" stroke-miterlimit="10" stroke-linecap="round"
        stroke-linejoin="round" />
    <path d="M35.566 46.6314L51.1465 37.3578L35.566 57.7876L19.9483 37.4449L35.566 46.6314Z"
        stroke="white" stroke-width="2" stroke-miterlimit="10" stroke-linecap="round"
        stroke-linejoin="round" />
    <mask id="mask0_51_623" style="mask-type:luminance" maskUnits="userSpaceOnUse" x="5" y="29"
        width="67" height="13">
        <path d="M5.12631 29.0229H71.5482V41.1375H5.12631V29.0229Z" fill="white" />
    </mask>
    <g mask="url(#mask0_51_623)">
        <path
            d="M28.3203 41.1376C26.7865 41.1376 25.3034 40.868 23.8451 40.329C21.7656 39.5581 19.9531 38.26 18.2005 37.0048C17.6341 36.5985 17.0482 36.1792 16.4675 35.7886C12.7735 33.299 9.07945 32.6285 5.49091 33.7925L5.12762 32.6623C7.18231 31.9956 9.29169 31.8746 11.3998 32.3003C13.3099 32.6884 15.237 33.5295 17.1263 34.8016C17.7214 35.2027 18.3138 35.6272 18.8867 36.0373C20.5755 37.2483 22.3229 38.4996 24.2539 39.2144C30.1315 41.3902 35.8659 38.2274 40.2057 35.2287C40.4128 35.0855 40.6211 34.941 40.8307 34.7964C44.625 32.1649 48.5482 29.4449 53.1797 29.105C56.9701 28.8264 60.5456 30.2235 64.0039 31.5738C66.4466 32.5282 68.9714 33.5152 71.53 33.8876L71.3607 35.0634C68.668 34.6701 66.0794 33.6584 63.5755 32.6805C60.086 31.3186 56.7904 30.0308 53.2656 30.2899C48.9544 30.6063 45.1654 33.2326 41.5013 35.7743C41.293 35.9188 41.0834 36.0634 40.875 36.2079C37.8399 38.3055 35.3034 39.635 32.8919 40.3928C31.3099 40.8889 29.7917 41.1376 28.3203 41.1376Z"
            fill="#5E2590" />
    </g>
    <path
        d="M27.763 40.0984C26.3932 40.0984 25.0352 39.8862 23.7201 39.4643C21.5456 38.769 19.6211 37.5177 17.7591 36.3068C17.1576 35.9148 16.5365 35.5099 15.9206 35.1349C11.9961 32.7404 8.15886 32.2208 4.51173 33.588L4.09897 32.4747C6.1797 31.6948 8.34376 31.4721 10.53 31.8133C12.5117 32.1219 14.5326 32.8979 16.5339 34.1193C17.1641 34.5047 17.793 34.9135 18.4024 35.3094C20.1979 36.4773 22.0547 37.6857 24.0781 38.3328C30.237 40.3029 36 36.7781 40.3333 33.4878C40.5404 33.3302 40.7487 33.1714 40.957 33.0125C44.7409 30.1297 48.6524 27.1479 53.3997 26.5841C57.2865 26.1219 61.0287 27.3927 64.6497 28.6219C67.2083 29.4917 69.8542 30.3901 72.5091 30.6557L72.3919 31.838C69.6042 31.5581 66.8932 30.6375 64.2708 29.7482C60.6133 28.506 57.1602 27.3328 53.5391 27.7638C49.1107 28.2898 45.3281 31.1714 41.6719 33.9591C41.4622 34.118 41.2539 34.2768 41.0456 34.4344C38.0195 36.7339 35.4701 38.2195 33.0247 39.1102C31.4883 39.67 29.9675 39.9956 28.5078 40.0776C28.2591 40.0906 28.0104 40.0984 27.763 40.0984Z"
        fill="#2C3892" />
    <path
        d="M27.2044 39.0866C25.9883 39.0866 24.7787 38.9239 23.5938 38.5997C21.3242 37.9786 19.2878 36.7728 17.3177 35.6062C16.681 35.2299 16.0221 34.8393 15.3711 34.4786C11.2188 32.1804 7.23569 31.8119 3.53126 33.3822L3.07162 32.2885C5.1797 31.3939 7.39584 31.071 9.66147 31.3262C11.7149 31.558 13.8281 32.2689 15.9414 33.4382C16.6081 33.808 17.2734 34.2025 17.918 34.5827C19.8203 35.709 21.7878 36.8744 23.9037 37.4538C30.3451 39.2169 36.1367 35.3288 40.4636 31.7455C40.6706 31.5736 40.8776 31.4018 41.0859 31.2286C44.8581 28.0932 48.7591 24.8523 53.6224 24.0632C57.6029 23.4187 61.5143 24.5645 65.2956 25.6726C67.9714 26.4564 70.7396 27.2676 73.4883 27.4252L73.4206 28.6114C70.5378 28.4447 67.7044 27.6153 64.9649 26.8132C61.1406 25.6921 57.5274 24.6335 53.8112 25.2364C49.2643 25.9734 45.4896 29.1101 41.8386 32.1439C41.6302 32.3171 41.4232 32.4903 41.2149 32.6622C38.1966 35.1622 35.6354 36.8041 33.155 37.8288C31.5977 38.4721 30.0469 38.8731 28.5469 39.0202C28.099 39.0645 27.6511 39.0866 27.2044 39.0866Z"
        fill="#40B93C" />
    <path
        d="M26.6471 38.0971C25.5807 38.0971 24.5156 37.976 23.4661 37.7325C21.1029 37.1856 18.9544 36.0268 16.8763 34.9057C16.2044 34.5424 15.5091 34.1674 14.8216 33.8224C10.4401 31.6192 6.31119 31.4018 2.54817 33.1765L2.04556 32.1023C4.18098 31.0945 6.45051 30.67 8.79426 30.8406C10.9193 30.9955 13.125 31.6414 15.3503 32.7599C16.0534 33.1127 16.7565 33.4929 17.4362 33.8588C19.444 34.9434 21.5221 36.0645 23.7305 36.575C30.4544 38.1309 36.2747 33.8796 40.595 30.0033C40.8021 29.8171 41.0091 29.6309 41.2161 29.4447C44.9779 26.058 48.8672 22.5554 53.8463 21.5437C57.9219 20.7156 62 21.7364 65.944 22.7234C68.737 23.4226 71.625 24.1453 74.4687 24.1961L74.4479 25.3836C71.47 25.3315 68.5156 24.5919 65.6575 23.8757C61.6654 22.877 57.8945 21.933 54.0807 22.7078C49.4167 23.6557 45.6484 27.0489 42.0052 30.3289C41.7969 30.5164 41.5898 30.7026 41.3828 30.8888C38.3724 33.5906 35.7995 35.3888 33.2838 36.5463C31.7057 37.2729 30.1237 37.7494 28.5846 37.963C27.9401 38.0528 27.293 38.0971 26.6471 38.0971Z"
        fill="#F8BD0A" />
    <path
        d="M26.0898 37.1284C25.1706 37.1284 24.25 37.0399 23.3359 36.8641C20.8789 36.3914 18.6185 35.2795 16.4336 34.2026C15.7253 33.8537 14.9935 33.493 14.2708 33.1636C9.65884 31.0568 5.3841 30.9917 1.56379 32.9709L1.02213 31.9162C3.18358 30.7964 5.5065 30.2717 7.92838 30.3563C10.125 30.4344 12.4245 31.0151 14.7604 32.0828C15.4987 32.4201 16.2383 32.7834 16.9531 33.1362C19.069 34.1779 21.2565 35.2547 23.5586 35.6987C30.5651 37.0464 36.4154 32.4318 40.7292 28.2612C40.9349 28.062 41.1406 27.8615 41.3476 27.661C45.0989 24.0217 48.9779 20.2599 54.0716 19.0256C58.2409 18.0151 62.487 18.911 66.5924 19.7769C69.5026 20.3901 72.5117 21.0256 75.4505 20.967L75.4739 22.1545C72.3984 22.2157 69.3242 21.5672 66.3502 20.9383C62.1888 20.0607 58.2591 19.2313 54.3489 20.1792C49.5664 21.3394 45.806 24.9865 42.1693 28.5151C41.9622 28.7157 41.7552 28.9162 41.5482 29.1167C38.5456 32.019 35.9609 33.9722 33.4114 35.2638C31.8112 36.0737 30.2005 36.6258 28.6211 36.9058C27.7812 37.0542 26.9362 37.1284 26.0898 37.1284Z"
        fill="#F14624" />
    <mask id="mask1_51_623" style="mask-type:luminance" maskUnits="userSpaceOnUse" x="0" y="15"
        width="77" height="22">
        <path d="M0 15.8888H76.4987V36.2169H0V15.8888Z" fill="white" />
    </mask>
    <g mask="url(#mask1_51_623)">
        <path
            d="M25.5339 36.1765C24.7578 36.1765 23.9805 36.1167 23.2057 35.9956C20.6549 35.5971 18.2839 34.5294 15.9896 33.4982C15.2461 33.1635 14.4779 32.8185 13.7201 32.5034C8.8776 30.493 4.45573 30.5802 0.578125 32.7651L0 31.7299C2.1862 30.4982 4.5625 29.8732 7.0599 29.8732H7.0638C9.33203 29.8732 11.724 30.3888 14.1706 31.4057C14.9453 31.7273 15.7214 32.0763 16.4727 32.4148C18.6953 33.4135 20.9935 34.4474 23.388 34.8224C30.6784 35.9617 36.5573 30.9825 40.8646 26.5177C41.0703 26.3042 41.276 26.0906 41.4818 25.8758C45.2214 21.9864 49.0885 17.9643 54.2995 16.506C58.5625 15.3133 62.9753 16.0841 67.2435 16.8302C70.2708 17.3588 73.401 17.9057 76.4349 17.739L76.4987 18.9252C73.3307 19.0984 70.1328 18.5411 67.0404 18.0008C62.7122 17.2443 58.6237 16.5294 54.6159 17.6505C49.7161 19.0216 45.9622 22.9252 42.332 26.7013C42.125 26.9161 41.9193 27.131 41.7122 27.3445C38.7188 30.4474 36.1211 32.5568 33.5378 33.9799C31.9167 34.8732 30.2747 35.5021 28.6562 35.8471C27.625 36.0672 26.5807 36.1765 25.5339 36.1765Z"
            fill="#ED1C24" />
    </g>
    <mask id="mask2_51_623" style="mask-type:luminance" maskUnits="userSpaceOnUse" x="35" y="0"
        width="19" height="44">
        <path d="M53.2029 0H35.2396V43.9792H53.2029V0Z" fill="white" />
    </mask>
    <g mask="url(#mask2_51_623)">
        <path d="M35.6584 42.1143L51.2389 32.8407L35.6584 7.2511L20.0407 32.9278L35.6584 42.1143Z"
            stroke="white" stroke-width="2" stroke-miterlimit="10" stroke-linecap="round"
            stroke-linejoin="round" />
    </g>
</svg>